<?xml version="1.0" standalone="no"?>
<!DOCTYPE svg PUBLIC "-//W3C//DTD SVG 20010904//EN"
 "http://www.w3.org/TR/2001/REC-SVG-20010904/DTD/svg10.dtd">
<svg version="1.0" xmlns="http://www.w3.org/2000/svg"
 width="260.000000pt" height="260.000000pt" viewBox="0 0 260.000000 260.000000"
 preserveAspectRatio="xMidYMid meet">
<metadata>
Created by potrace 1.11, written by Peter Selinger 2001-2013
</metadata>
<g transform="translate(0.000000,260.000000) scale(0.100000,-0.100000)"
fill="#000000" stroke="none">
<path d="M470 2455 c0 -47 -3 -85 -8 -85 -4 0 -41 34 -82 75 l-74 75 -28 -27
-28 -27 110 -111 110 -110 0 -220 0 -220 261 -267 261 -268 -171 0 -171 0 0
-25 c0 -32 21 -73 52 -102 45 -43 112 -64 227 -71 l108 -7 -93 -355 c-51 -195
-93 -360 -94 -367 0 -7 108 -73 240 -148 l240 -137 243 137 c133 76 243 138
244 139 2 1 -42 171 -97 377 -55 206 -100 377 -100 380 0 4 58 8 128 11 113 3
135 7 177 28 55 29 82 61 91 108 l7 32 -189 0 -189 0 273 266 272 266 0 220 0
221 106 109 107 109 -29 30 -28 29 -78 -77 -78 -78 0 88 0 87 -40 0 -40 0 -2
-307 -3 -308 -78 74 -77 74 -28 -24 c-15 -13 -29 -25 -31 -27 -3 -1 40 -48 94
-102 l100 -100 -110 -110 c-60 -61 -114 -110 -120 -110 -5 0 -33 23 -62 52
l-53 52 -30 -29 -30 -29 55 -56 55 -55 -98 -98 c-53 -53 -101 -97 -105 -97 -4
0 -7 29 -7 65 l0 65 -35 0 -35 0 0 -100 0 -100 -195 0 -195 0 0 100 0 100 -40
0 -40 0 0 -67 0 -68 -100 100 -100 100 54 55 55 55 -25 29 -25 29 -53 -52
c-28 -28 -56 -51 -61 -51 -5 0 -58 48 -117 107 l-108 108 100 100 100 101 -30
29 -30 29 -73 -72 c-40 -40 -76 -72 -80 -72 -4 0 -7 137 -7 305 l0 305 -35 0
-35 0 0 -85z m675 -1797 c32 -109 66 -206 77 -217 44 -48 165 -52 210 -7 17
18 39 80 82 232 50 176 76 252 76 222 0 -4 29 -119 65 -255 36 -136 65 -253
65 -259 0 -12 -369 -224 -389 -224 -8 0 -380 200 -397 214 -2 1 125 496 132
516 8 20 9 16 79 -222z"/>
</g>
</svg>
